# xmcd
#
# Track frame offsets:
#	150
#	16004
#	30152
#	49475
#	67050
#	80577
#	97195
#	116243
#	132655
#
# Disc length: 1807 seconds
#
# Revision: 0
# Processed by: cddbd v1.5.2PL0 Copyright (c) Steve Scherf et al.
# Submitted via: EZCDAudioConverter 3.0.8.1
#
DISCID=7d070d09
DTITLE=LA COQUETERA
DYEAR=1900
DGENRE=
TTITLE0=IMELDA
TTITLE1=APASIONADO
TTITLE2=COMO ME DUELE
TTITLE3=Y COMO ES EL
TTITLE4=SAL Y AGUA
TTITLE5=LA ULTIMA NOCHE
TTITLE6=VUELVE CONMIGO
TTITLE7=RECUERDOS DE UN LOCO AMOR
TTITLE8=PROMO
EXTD=
EXTT0=
EXTT1=
EXTT2=
EXTT3=
EXTT4=
EXTT5=
EXTT6=
EXTT7=
EXTT8=
PLAYORDER=
